<?xml version="1.0" encoding="utf-8"?>
<!-- Generator: Adobe Illustrator 22.1.0, SVG Export Plug-In . SVG Version: 6.00 Build 0)  -->
<svg version="1.1" id="Ebene_1" xmlns="http://www.w3.org/2000/svg" xmlns:xlink="http://www.w3.org/1999/xlink" x="0px" y="0px"
	 viewBox="0 0 256 256" style="enable-background:new 0 0 256 256;" xml:space="preserve">
<g>
	<path d="M128,0C57.3,0,0,57.3,0,128s57.3,128,128,128s128-57.3,128-128S198.7,0,128,0z M128,249.4C61.1,249.4,6.6,194.9,6.6,128
		C6.6,61.1,61.1,6.6,128,6.6S249.4,61.1,249.4,128C249.4,194.9,194.9,249.4,128,249.4z"/>
	<path d="M128,21.1C69,21.1,21.1,69,21.1,128c0,59,47.9,106.9,106.9,106.9S234.9,187,234.9,128C234.9,69,187,21.1,128,21.1z
		 M128,228.3c-55.3,0-100.3-45-100.3-100.3S72.7,27.7,128,27.7s100.3,45,100.3,100.3S183.3,228.3,128,228.3z"/>
	<path d="M168.9,55.3L168.9,55.3c0.1-0.8-0.1-1.6-0.5-2.3c-1-1.7-3.2-2.2-4.9-1.2c-14.6,9-23.3,24.7-23.3,41.8c0,0,0,0,0,0v46.9
		c0,4.1,3.3,7.5,7.4,7.6v48.5c0,5.9,4.8,10.7,10.7,10.7s10.7-4.8,10.7-10.7v-52c0,0,0,0,0,0V55.3z M147.7,141
		c-0.2,0-0.4-0.2-0.4-0.4V93.7c0,0,0,0,0,0c0-12.4,5.3-23.8,14.5-31.7v79H147.7z M161.8,196.6c0,2-1.6,3.5-3.6,3.5
		c-2,0-3.5-1.6-3.5-3.5v-48.4h7.1V196.6z"/>
	<path d="M114.5,51.3c-2,0-3.6,1.6-3.6,3.6v40.7h-9.1V54.9c0-2-1.6-3.6-3.6-3.6c-2,0-3.6,1.6-3.6,3.6v40.7h-9.1V54.9
		c0-2-1.6-3.6-3.6-3.6c-2,0-3.6,1.6-3.6,3.6v51.8c0,5.8,4.7,10.6,10.6,10.6h0.6l-5,75.5c-0.3,3.8,1.1,7.5,3.7,10.3
		c2.6,2.8,6.2,4.3,10,4.3c3.8,0,7.4-1.6,10-4.3c2.6-2.8,3.9-6.5,3.7-10.3l-5-75.5h0.6c5.8,0,10.6-4.7,10.6-10.6V54.9
		C118.1,52.9,116.5,51.3,114.5,51.3z M103,198.1c-1.2,1.3-2.9,2.1-4.8,2.1c-1.8,0-3.5-0.7-4.8-2.1c-1.2-1.3-1.9-3.1-1.7-4.9
		l5.1-75.9h2.9l5.1,75.9C104.9,195,104.3,196.8,103,198.1z M111,106.7c0,1.9-1.5,3.4-3.4,3.4H93.3c0,0,0,0,0,0H89
		c-1.9,0-3.4-1.5-3.4-3.4v-4H111V106.7z"/>
</g>
</svg>
